# xmcd
#
# Track frame offsets:
#	150
#	9587
#	23375
#	33025
#	46575
#	56700
#	67650
#	78312
#	94712
#	104275
#	119312
#	129837
#	138787
#	152412
#	165175
#	177687
#	191000
#	203900
#
# Disc length: 2869 seconds
#
# Revision: 1
# Processed by: cddbd v1.5.1PL0 Copyright (c) Steve Scherf et al.
# Submitted via: EasyCDDAExtractor 7.0.6.1
#
DISCID=cd0b3312
DTITLE=Various Artist - More Yodelling favourites
DYEAR=1900
DGENRE=Country
TTITLE0=Frank Ifield - I Remember You
TTITLE1=Wayne Horsburgh - Can You Hear Those Pioneers
TTITLE2=Slim Whitman - Mockingbird Hill
TTITLE3=Mary Schneider - Wimoweh
TTITLE4=Roy Rogers - Night Guard
TTITLE5=Owen Blundell - Ding Dong Bells
TTITLE6=Reg Lindsay - Ray Herman Rodeo Yodel
TTITLE7=Corinna Cordwell - Ghost Riders In The Sky Medley
TTITLE8=Smoky Dawson - I'm Happy In The Land Where I Was Born
TTITLE9=Tania Cassidy - September's Sweet Child
TTITLE10=Wayne Horsburgh - It's A Small World
TTITLE11=Kathryn Pitt - Riding High
TTITLE12=Frank Ifield - Love Song Of The Waterfall
TTITLE13=Mary Schneider - Cattle Call
TTITLE14=Heather McKean - Rocking Alone In An Old Rocking Chair
TTITLE15=Slim Whitman - Cowboy's Heaven
TTITLE16=Shirley Thoms - There's A New Moon Over My Shoulder
TTITLE17=Yodelling Around Australia
EXTD=
EXTT0=
EXTT1=
EXTT2=
EXTT3=
EXTT4=
EXTT5=
EXTT6=
EXTT7=
EXTT8=
EXTT9=
EXTT10=
EXTT11=
EXTT12=
EXTT13=
EXTT14=
EXTT15=
EXTT16=
EXTT17=
PLAYORDER=
